<svg width="119" height="118" viewBox="0 0 119 118" fill="none" xmlns="http://www.w3.org/2000/svg">
<g filter="url(#filter0_d_174_260)">
<circle cx="54" cy="60" r="49.5" stroke="#FD7400"/>
<g clip-path="url(#clip0_174_260)">
<path d="M73.9971 48.1269C73.9971 47.9812 74.1758 48.5613 71.7502 41.2847C71.4946 40.518 70.7798 40.0027 69.9715 40.0027C59.62 40.0027 44.1423 40.0027 38.0269 40.0027C37.2186 40.0027 36.5039 40.5179 36.2483 41.2847C33.707 48.9084 34.0674 47.8249 34.0325 47.933C33.9898 48.0639 34.0015 48.0245 34.0015 49.3767C34.0015 50.5657 34.4789 51.6448 35.2513 52.434V71.2493C35.2513 72.6277 36.3727 73.7491 37.7511 73.7491H47.0122L46.5956 76.2488H45.719C44.7714 76.2488 44.0005 77.0197 44.0005 77.9674V79.3735C44.0005 79.7186 44.2803 79.9984 44.6254 79.9984H63.3733C63.7185 79.9984 63.9983 79.7186 63.9983 79.3735V77.9674C63.9983 77.0197 63.2273 76.2488 62.2797 76.2488H61.4031L60.9865 73.7491H70.2477C71.626 73.7491 72.7474 72.6277 72.7474 71.2493C72.7474 70.3519 72.7474 53.2619 72.7474 52.434C73.5198 51.6448 73.9973 50.5657 73.9973 49.3767V48.1269H73.9971ZM70.5644 41.6799L72.5051 47.5019H66.4024L65.3609 41.2526H69.9716C70.241 41.2526 70.4792 41.4243 70.5644 41.6799ZM71.4974 53.3283V67.4997H36.5012V53.3283C36.8898 53.5135 37.3099 53.6425 37.7511 53.7059V65.625C37.7511 65.9701 38.0309 66.25 38.376 66.25H69.6226C69.9677 66.25 70.2475 65.9701 70.2475 65.625V53.7059C70.6886 53.6425 71.1087 53.5135 71.4974 53.3283ZM35.2513 48.7518H41.5006V49.3767C41.5006 51.0997 40.0989 52.5014 38.376 52.5014C36.6531 52.5014 35.2513 51.0997 35.2513 49.3767V48.7518ZM49.5705 41.2526L49.0497 47.5019H42.8632L43.9048 41.2526H49.5705ZM57.1738 41.2526L57.6946 47.5019H50.304L50.8248 41.2526H57.1738ZM64.0936 41.2526L65.1352 47.5019H58.9488L58.428 41.2526H64.0936ZM53.9993 52.5014C51.9317 52.5014 50.2497 50.8193 50.2497 48.7518H57.7489C57.7489 50.8193 56.0668 52.5014 53.9993 52.5014ZM42.7505 48.7518H48.9998V49.3767C48.9998 51.0997 47.5981 52.5014 45.8752 52.5014C44.1522 52.5014 42.7505 51.0997 42.7505 49.3767V48.7518ZM68.9976 65H39.0009V53.7059C40.3264 53.5154 41.4617 52.7291 42.1256 51.6273C43.8903 54.5565 48.1727 54.4294 49.7562 51.3914C51.7171 54.5321 56.2767 54.5398 58.2424 51.3914C59.8235 54.4247 64.1051 54.5617 65.8731 51.6273C66.5369 52.729 67.6722 53.5154 68.9977 53.7059V65H68.9976ZM62.1234 52.5014C60.4005 52.5014 58.9987 51.0997 58.9987 49.3767V48.7518H65.2481V49.3767C65.2481 51.0997 63.8463 52.5014 62.1234 52.5014ZM37.4341 41.6799C37.5193 41.4243 37.7575 41.2526 38.027 41.2526H42.6377L41.5962 47.5019H35.4934L37.4341 41.6799ZM62.7483 77.9674V78.7485H45.2502V77.9674C45.2502 77.7089 45.4605 77.4987 45.7189 77.4987H62.2796C62.538 77.4987 62.7483 77.7089 62.7483 77.9674ZM60.1358 76.2488H47.8627L48.2794 73.7491H59.7191L60.1358 76.2488ZM71.4974 71.2493C71.4974 71.9385 70.9367 72.4992 70.2475 72.4992C68.3325 72.4992 39.693 72.4992 37.7511 72.4992C37.0619 72.4992 36.5012 71.9385 36.5012 71.2493V68.7496H71.4974V71.2493ZM72.7472 49.3767C72.7472 51.0997 71.3455 52.5014 69.6226 52.5014C67.8996 52.5014 66.4979 51.0997 66.4979 49.3767V48.7518H72.7472V49.3767Z" fill="#FD7400"/>
<path d="M53.3744 55.6255C53.0293 55.6255 52.7495 55.9053 52.7495 56.2504C52.7495 56.5955 53.0293 56.8754 53.3744 56.8754H66.498C66.8431 56.8754 67.1229 56.5955 67.1229 56.2504C67.1229 55.9053 66.8431 55.6255 66.498 55.6255H53.3744Z" fill="#FD7400"/>
<path d="M66.498 58.7501H53.3744C53.0293 58.7501 52.7495 59.0299 52.7495 59.3751C52.7495 59.7202 53.0293 60 53.3744 60H66.498C66.8431 60 67.1229 59.7202 67.1229 59.3751C67.1229 59.0299 66.8431 58.7501 66.498 58.7501Z" fill="#FD7400"/>
<path d="M62.1235 61.8748H53.3744C53.0293 61.8748 52.7495 62.1546 52.7495 62.4997C52.7495 62.8448 53.0293 63.1246 53.3744 63.1246H62.1235C62.4686 63.1246 62.7484 62.8448 62.7484 62.4997C62.7484 62.1546 62.4686 61.8748 62.1235 61.8748Z" fill="#FD7400"/>
<path d="M49.6249 58.1252C49.2679 58.1252 48.5838 58.1252 48.2381 58.1252L47.7315 56.0989C47.6479 55.7641 47.3091 55.5605 46.9737 55.6442C46.6389 55.7279 46.4352 56.0672 46.519 56.402L46.9498 58.1253H44.801L45.2318 56.402C45.3156 56.0672 45.112 55.7279 44.7772 55.6442C44.4425 55.5606 44.103 55.7641 44.0194 56.0989L43.5128 58.1252C43.1641 58.1252 42.4784 58.1252 42.1259 58.1252C41.7808 58.1252 41.501 58.405 41.501 58.7501C41.501 59.0953 41.7808 59.3751 42.1259 59.3751H42.2214L42.7593 62.6025C42.8096 62.9037 43.0702 63.1247 43.3758 63.1247H48.3752C48.6807 63.1247 48.9414 62.9038 48.9917 62.6025L49.5296 59.3751H49.6251C49.9702 59.3751 50.25 59.0953 50.25 58.7501C50.25 58.405 49.9701 58.1252 49.6249 58.1252ZM47.8456 61.8748H43.905L43.4883 59.3751H48.2623L47.8456 61.8748Z" fill="#FD7400"/>
<path d="M53.4218 70.8629C53.6181 71.3335 54.251 71.3766 54.5186 70.9707C54.7136 70.6814 54.6272 70.2893 54.3459 70.1044C53.8439 69.7655 53.1834 70.2886 53.4218 70.8629Z" fill="#FD7400"/>
</g>
<g filter="url(#filter1_d_174_260)">
<circle cx="89" cy="30" r="20" fill="white"/>
</g>
<path d="M86.918 35.82H95.666V34.11H89.96C92.066 32.184 95.306 29.754 95.306 26.568C95.306 24.21 93.794 22.608 91.13 22.608C88.808 22.608 86.972 23.994 86.9 26.838H88.88C88.934 25.362 89.708 24.354 91.148 24.354C92.678 24.354 93.272 25.29 93.272 26.658C93.272 29.232 90.014 31.608 86.918 34.326V35.82Z" fill="#FD7400"/>
</g>
<defs>
<filter id="filter0_d_174_260" x="0" y="10" width="113" height="108" filterUnits="userSpaceOnUse" color-interpolation-filters="sRGB">
<feFlood flood-opacity="0" result="BackgroundImageFix"/>
<feColorMatrix in="SourceAlpha" type="matrix" values="0 0 0 0 0 0 0 0 0 0 0 0 0 0 0 0 0 0 127 0" result="hardAlpha"/>
<feOffset dy="4"/>
<feGaussianBlur stdDeviation="2"/>
<feComposite in2="hardAlpha" operator="out"/>
<feColorMatrix type="matrix" values="0 0 0 0 0 0 0 0 0 0 0 0 0 0 0 0 0 0 0.25 0"/>
<feBlend mode="normal" in2="BackgroundImageFix" result="effect1_dropShadow_174_260"/>
<feBlend mode="normal" in="SourceGraphic" in2="effect1_dropShadow_174_260" result="shape"/>
</filter>
<filter id="filter1_d_174_260" x="59" y="0" width="60" height="60" filterUnits="userSpaceOnUse" color-interpolation-filters="sRGB">
<feFlood flood-opacity="0" result="BackgroundImageFix"/>
<feColorMatrix in="SourceAlpha" type="matrix" values="0 0 0 0 0 0 0 0 0 0 0 0 0 0 0 0 0 0 127 0" result="hardAlpha"/>
<feOffset/>
<feGaussianBlur stdDeviation="5"/>
<feColorMatrix type="matrix" values="0 0 0 0 0.766667 0 0 0 0 0.766667 0 0 0 0 0.766667 0 0 0 0.5 0"/>
<feBlend mode="normal" in2="BackgroundImageFix" result="effect1_dropShadow_174_260"/>
<feBlend mode="normal" in="SourceGraphic" in2="effect1_dropShadow_174_260" result="shape"/>
</filter>
<clipPath id="clip0_174_260">
<rect width="40" height="40" fill="white" transform="translate(34 40)"/>
</clipPath>
</defs>
</svg>
